<svg xmlns="http://www.w3.org/2000/svg" width="64" height="64" viewBox="0 0 64 64" fill="none">
  <rect width="64" height="64" rx="12" fill="#6366F1"/>
  <path d="M22 18H42C43.1046 18 44 18.8954 44 20V44C44 45.1046 43.1046 46 42 46H22C20.8954 46 20 45.1046 20 44V20C20 18.8954 20.8954 18 22 18Z" fill="white"/>
  <path d="M26 26H38" stroke="#6366F1" stroke-width="2" stroke-linecap="round"/>
  <path d="M26 32H38" stroke="#6366F1" stroke-width="2" stroke-linecap="round"/>
  <path d="M26 38H34" stroke="#6366F1" stroke-width="2" stroke-linecap="round"/>
  <path d="M48 28C52.4183 28 56 31.5817 56 36C56 40.4183 52.4183 44 48 44C43.5817 44 40 40.4183 40 36" stroke="white" stroke-width="2"/>
  <circle cx="48" cy="36" r="3" fill="white"/>
  <path d="M48 44V52" stroke="white" stroke-width="2"/>
</svg> 